<svg aria-hidden="true" style="position: absolute; width: 0; height: 0; overflow: hidden;" version="1.1"
    xmlns="http://www.w3.org/2000/svg" xmlns:xlink="http://www.w3.org/1999/xlink">
    <defs>
        <symbol id="icon-sun" viewBox="0 0 32 32">
            <path
                d="M16 24.727c-4.82 0-8.727-3.907-8.727-8.727s3.907-8.727 8.727-8.727c4.82 0 8.727 3.907 8.727 8.727s-3.907 8.727-8.727 8.727zM16 21.818c3.213 0 5.818-2.605 5.818-5.818s-2.605-5.818-5.818-5.818c-3.213 0-5.818 2.605-5.818 5.818s2.605 5.818 5.818 5.818zM14.545 0h2.909v4.364h-2.909v-4.364zM14.545 27.636h2.909v4.364h-2.909v-4.364zM3.658 5.715l2.057-2.057 3.086 3.086-2.057 2.057-3.086-3.086zM23.2 25.257l2.057-2.057 3.086 3.086-2.057 2.057-3.086-3.086zM26.285 3.658l2.057 2.057-3.086 3.086-2.057-2.057 3.086-3.086zM6.743 23.2l2.057 2.057-3.086 3.086-2.057-2.057 3.086-3.086zM32 14.545v2.909h-4.364v-2.909h4.364zM4.364 14.545v2.909h-4.364v-2.909h4.364z">
            </path>
        </symbol>
        <symbol id="icon-down" viewBox="0 0 80 32">
            <path d="M40 29.41l37.068-19.624-3.868-7.306-33.199 17.576-33.199-17.576-3.868 7.306 37.067 19.624z"></path>
        </symbol>
        <symbol id="icon-download" viewBox="0 0 32 32">
            <path
                d="M27.086 8.404l-21.185 21.185-3.481-3.481 21.185-21.185h-18.673v-4.923h27.077v27.077h-4.923v-18.673z">
            </path>
        </symbol>
        <symbol id="icon-git" viewBox="0 0 29 32">
            <path
                d="M5.918 25.376c-0.457-0.306-0.851-0.695-1.311-1.244-0.166-0.199-0.84-1.043-0.71-0.882-0.705-0.876-1.151-1.282-1.61-1.447-0.792-0.284-1.204-1.157-0.92-1.949s1.157-1.204 1.949-0.92c1.147 0.411 1.923 1.12 2.968 2.42-0.143-0.178 0.517 0.65 0.66 0.821 0.29 0.347 0.503 0.557 0.669 0.668 0.312 0.209 0.896 0.299 1.754 0.213 0.036-0.582 0.144-1.147 0.308-1.669-4.523-1.105-7.083-4.024-7.083-9.746 0-1.888 0.563-3.59 1.612-5.016-0.332-1.362-0.282-3.009 0.46-4.863 0.17-0.425 0.522-0.751 0.959-0.888 0.125-0.036 0.194-0.052 0.318-0.071 1.223-0.188 2.952 0.26 5.205 1.671 1.32-0.312 2.703-0.47 4.094-0.47 1.389 0 2.771 0.158 4.090 0.469 2.25-1.421 3.982-1.869 5.214-1.671 0.129 0.021 0.24 0.048 0.332 0.078 0.428 0.141 0.772 0.463 0.939 0.882 0.741 1.853 0.791 3.5 0.46 4.862 1.053 1.427 1.612 3.116 1.612 5.017 0 5.725-2.551 8.633-7.074 9.741 0.19 0.632 0.291 1.339 0.291 2.103 0 1.013-0.004 1.979-0.011 3.064-0.002 0.29-0.004 0.599-0.007 1.075 0.572 0.126 1.044 0.578 1.167 1.19 0.165 0.825-0.37 1.628-1.195 1.793-1.736 0.347-3.022-0.81-3.022-2.323 0-0.138 0.001-0.334 0.003-0.681 0.003-0.477 0.006-0.786 0.008-1.074 0.007-1.078 0.011-2.039 0.011-3.044 0-1.063-0.279-1.755-0.649-2.074-1.007-0.868-0.497-2.52 0.825-2.669 4.52-0.508 6.608-2.259 6.608-7.101 0-1.455-0.475-2.658-1.391-3.663-0.393-0.432-0.505-1.050-0.288-1.592 0.253-0.631 0.36-1.458 0.145-2.459l-0.014 0.004c-0.75 0.212-1.692 0.671-2.832 1.446-0.372 0.253-0.836 0.328-1.269 0.207-1.25-0.352-2.593-0.532-3.95-0.532s-2.7 0.18-3.95 0.532c-0.431 0.121-0.893 0.047-1.264-0.203-1.147-0.772-2.094-1.23-2.848-1.443-0.219 0.995-0.111 1.82 0.141 2.449 0.217 0.542 0.105 1.16-0.288 1.592-0.91 0.999-1.391 2.222-1.391 3.663 0 4.833 2.089 6.596 6.586 7.101 1.319 0.148 1.831 1.794 0.83 2.664-0.293 0.255-0.654 1.115-0.654 2.078v4.798c0 1.503-1.272 2.63-2.986 2.33-0.829-0.145-1.383-0.935-1.238-1.764 0.11-0.628 0.59-1.099 1.177-1.227v-1.508c-1.387 0.093-2.532-0.135-3.435-0.739z">
            </path>
        </symbol>
        <symbol id="icon-gmail" viewBox="0 0 32 32">
            <path
                d="M16 14.222h15.17c0.078 0.684 0.119 1.385 0.119 2.104 0 4.862-1.741 8.954-4.76 11.733-2.641 2.438-6.255 3.868-10.565 3.868-6.24 0-11.639-3.577-14.266-8.794-1.081-2.155-1.698-4.593-1.698-7.169s0.617-5.014 1.698-7.169c2.627-5.217 8.025-8.795 14.266-8.795 4.303 0 7.916 1.582 10.681 4.158l-2.599 2.6c-2.057-1.99-4.84-3.202-8.045-3.202-6.873 0-12.444 5.572-12.444 12.444s5.572 12.444 12.444 12.444c6.269 0 10.923-4.636 11.692-10.667h-11.692v-3.556z">
            </path>
        </symbol>
        <symbol id="icon-location" viewBox="0 0 26 32">
            <path
                d="M13.091 31.604l-9.257-9.257c-5.112-5.112-5.112-13.401 0-18.513s13.401-5.112 18.513 0c5.112 5.112 5.112 13.401 0 18.513l-9.257 9.257zM20.29 20.29c3.976-3.976 3.976-10.423 0-14.399s-10.423-3.976-14.399 0-3.976 10.423 0 14.399l7.2 7.2 7.2-7.2zM13.091 16c-1.607 0-2.909-1.302-2.909-2.909s1.302-2.909 2.909-2.909 2.909 1.302 2.909 2.909c0 1.607-1.302 2.909-2.909 2.909z">
            </path>
        </symbol>
        <symbol id="icon-moon" viewBox="0 0 30 32">
            <path
                d="M12.19 8.381c0 5.891 4.776 10.667 10.667 10.667 2.984 0 5.682-1.226 7.618-3.201 0.001 0.051 0.001 0.102 0.001 0.153 0 8.416-6.822 15.238-15.238 15.238s-15.238-6.822-15.238-15.238c0-8.416 6.822-15.238 15.238-15.238 0.051 0 0.102 0 0.153 0.001-1.975 1.936-3.201 4.634-3.201 7.618zM3.048 16c0 6.733 5.458 12.19 12.19 12.19 4.66 0 8.71-2.615 10.761-6.458-1.017 0.239-2.070 0.363-3.142 0.363-7.574 0-13.714-6.14-13.714-13.714 0-1.072 0.124-2.125 0.363-3.142-3.843 2.051-6.458 6.101-6.458 10.761z">
            </path>
        </symbol>
        <symbol id="icon-tg" viewBox="0 0 32 32">
            <path
                d="M16.002 28.8c7.069 0 12.8-5.731 12.8-12.8s-5.731-12.8-12.8-12.8-12.8 5.731-12.8 12.8c0 7.069 5.731 12.8 12.8 12.8zM16.002 32c-8.837 0-16-7.164-16-16s7.163-16 16-16c8.836 0 16 7.163 16 16s-7.164 16-16 16zM11.026 17.873l-3.997-1.248c-0.864-0.265-0.869-0.859 0.193-1.286l15.573-6.015c0.903-0.37 1.417 0.097 1.124 1.262l-2.652 12.514c-0.185 0.89-0.722 1.102-1.465 0.691l-4.081-3.020-1.902 1.836c-0.196 0.189-0.355 0.351-0.654 0.391s-0.547-0.048-0.726-0.545l-1.391-4.593-0.020 0.013z">
            </path>
        </symbol>
        <symbol id="icon-up" viewBox="0 0 80 32">
            <path d="M40 2.59l37.068 19.624-3.868 7.306-33.199-17.576-33.199 17.576-3.868-7.306 37.067-19.624z"></path>
        </symbol>
        <symbol id="icon-cv" viewBox="0 0 36 32">
            <path
                d="M19.556 12.444h8.889l-10.667 10.667-10.667-10.667h8.889v-12.444h3.556v12.444zM3.556 28.444h28.444v-12.444h3.556v14.222c0 0.982-0.796 1.778-1.778 1.778h-32c-0.982 0-1.778-0.796-1.778-1.778v-14.222h3.556v12.444z">
            </path>
        </symbol>
    </defs>
</svg>